<svg xmlns="http://www.w3.org/2000/svg" viewBox="0 0 64 64">
	<rect width="64" height="64" rx="12" fill="#131318"/>
	<g fill="#ece7da"><rect x="5" y="14" width="5" height="5"/><rect x="10" y="14" width="5" height="5"/><rect x="15" y="14" width="5" height="5"/><rect x="20" y="14" width="5" height="5"/><rect x="25" y="14" width="5" height="5"/><rect x="5" y="19" width="5" height="5"/><rect x="5" y="24" width="5" height="5"/><rect x="5" y="29" width="5" height="5"/><rect x="10" y="29" width="5" height="5"/><rect x="15" y="29" width="5" height="5"/><rect x="20" y="29" width="5" height="5"/><rect x="5" y="34" width="5" height="5"/><rect x="5" y="39" width="5" height="5"/><rect x="5" y="44" width="5" height="5"/><rect x="10" y="44" width="5" height="5"/><rect x="15" y="44" width="5" height="5"/><rect x="20" y="44" width="5" height="5"/><rect x="25" y="44" width="5" height="5"/><rect x="35" y="14" width="5" height="5"/><rect x="40" y="14" width="5" height="5"/><rect x="45" y="14" width="5" height="5"/><rect x="50" y="14" width="5" height="5"/><rect x="35" y="19" width="5" height="5"/><rect x="55" y="19" width="5" height="5"/><rect x="35" y="24" width="5" height="5"/><rect x="55" y="24" width="5" height="5"/><rect x="35" y="29" width="5" height="5"/><rect x="40" y="29" width="5" height="5"/><rect x="45" y="29" width="5" height="5"/><rect x="50" y="29" width="5" height="5"/><rect x="35" y="34" width="5" height="5"/><rect x="45" y="34" width="5" height="5"/><rect x="35" y="39" width="5" height="5"/><rect x="50" y="39" width="5" height="5"/><rect x="35" y="44" width="5" height="5"/><rect x="55" y="44" width="5" height="5"/></g>
</svg>
